 <svg display="none"
 xmlns="http://www.w3.org/2000/svg" >
    <symbol id="mail" viewBox="0 0 16 12">
      <g>
        <path d="M14.5 0H1.50001C0.672854 0 0 0.672853 0 1.50001V10.5C0 11.3271 0.672854 12 1.50001 12H14.5C15.3271 12 16 11.3271 16 10.5V1.50001C16 0.672853 15.3271 0 14.5 0ZM14.5 0.999994C14.5679 0.999994 14.6325 1.01409 14.6916 1.0387L8 6.83838L1.30833 1.0387C1.36742 1.01412 1.43204 0.999994 1.49998 0.999994H14.5ZM14.5 11H1.50001C1.22414 11 0.999996 10.7759 0.999996 10.5V2.09521L7.67236 7.87792C7.76661 7.95944 7.8833 7.99999 8 7.99999C8.1167 7.99999 8.23339 7.95948 8.32764 7.87792L15 2.09521V10.5C15 10.7759 14.7759 11 14.5 11Z" />


      </g>

    </symbol>

 <symbol id="phone" viewBox="0 0 10 16">
      <g>
        <path d="M8.5 0H1.5C0.672848 0 0 0.672848 0 1.5V14.5C0 15.3272 0.672848 16 1.5 16H8.5C9.32715 16 10 15.3272 10 14.5V1.5C10 0.672848 9.32715 0 8.5 0ZM1.5 1H8.5C8.77588 1 9 1.22412 9 1.5V12H1V1.5C1 1.22412 1.22412 1 1.5 1ZM8.5 15H1.5C1.22412 15 1 14.7759 1 14.5V13H9V14.5C9 14.7759 8.77588 15 8.5 15Z" />



      </g>

    </symbol>



<symbol id="company-1" viewBox="0 0 45 50">
<g>
<path d="M6 0L13.3076 6.91796H33.6924V26.2158L41 33.1338V0H6Z" />
<path d="M0 6.62646V38.8137H34V26.0195L13.5231 6.63443L0 6.62646ZM27.5231 34.1055H5.38008V12.4579H6.9453V32.6397H27.5231V34.1055Z" />
<path d="M9.79102 44.7837L10.6089 43.0991H11.2925L10.1011 45.3452V46.6538H9.48096V45.3452L8.28711 43.0991H8.97314L9.79102 44.7837ZM13.3018 45.8262H11.9248L11.6367 46.6538H10.9946L12.3374 43.0991H12.8916L14.2368 46.6538H13.5923L13.3018 45.8262ZM12.0981 45.3281H13.1284L12.6133 43.8535L12.0981 45.3281ZM15.7358 45.6943C15.7358 45.5299 15.7806 45.3794 15.8701 45.2427C15.9596 45.1043 16.1362 44.9408 16.3999 44.752C16.2616 44.5778 16.1647 44.4297 16.1094 44.3076C16.0557 44.1855 16.0288 44.0675 16.0288 43.9536C16.0288 43.6753 16.1134 43.4556 16.2827 43.2944C16.452 43.1317 16.6799 43.0503 16.9663 43.0503C17.2251 43.0503 17.4367 43.1268 17.6011 43.2798C17.7671 43.4312 17.8501 43.6191 17.8501 43.8438C17.8501 43.9919 17.8127 44.1286 17.7378 44.2539C17.6629 44.3776 17.54 44.5013 17.3691 44.625L17.1274 44.8008L17.8135 45.6113C17.9128 45.416 17.9624 45.1987 17.9624 44.9595H18.4775C18.4775 45.3973 18.375 45.7562 18.1699 46.0361L18.6924 46.6538H18.0039L17.8037 46.417C17.5498 46.6074 17.2471 46.7026 16.8955 46.7026C16.5439 46.7026 16.2624 46.6099 16.0508 46.4243C15.8408 46.2371 15.7358 45.9938 15.7358 45.6943ZM16.9126 46.229C17.1128 46.229 17.3 46.1623 17.4741 46.0288L16.6978 45.1133L16.6221 45.167C16.4268 45.3151 16.3291 45.4844 16.3291 45.6748C16.3291 45.8392 16.382 45.9727 16.4878 46.0752C16.5936 46.1777 16.7352 46.229 16.9126 46.229ZM16.5854 43.939C16.5854 44.0757 16.6693 44.2474 16.8369 44.4541L17.1079 44.2686L17.1836 44.2075C17.2845 44.118 17.335 44.0033 17.335 43.8633C17.335 43.7705 17.3 43.6916 17.23 43.6265C17.16 43.5597 17.0713 43.5264 16.9639 43.5264C16.8483 43.5264 16.7563 43.5654 16.688 43.6436C16.6196 43.7217 16.5854 43.8201 16.5854 43.939ZM23.043 45.4966C23.0072 45.8758 22.8672 46.172 22.623 46.3853C22.3789 46.5968 22.0542 46.7026 21.6489 46.7026C21.3657 46.7026 21.1159 46.6359 20.8994 46.5024C20.6846 46.3674 20.5186 46.1761 20.4014 45.9287C20.2842 45.6813 20.2231 45.394 20.2183 45.0669V44.7349C20.2183 44.3996 20.2777 44.1042 20.3965 43.8486C20.5153 43.5931 20.6854 43.3962 20.9067 43.2578C21.1297 43.1195 21.3869 43.0503 21.6782 43.0503C22.0705 43.0503 22.3862 43.1569 22.6255 43.3701C22.8647 43.5833 23.0039 43.8844 23.043 44.2734H22.4277C22.3984 44.0179 22.3236 43.834 22.2031 43.7217C22.0843 43.6077 21.9093 43.5508 21.6782 43.5508C21.4097 43.5508 21.203 43.6493 21.0581 43.8462C20.9149 44.0415 20.8416 44.3288 20.8384 44.708V45.0229C20.8384 45.4071 20.9067 45.7 21.0435 45.9019C21.1818 46.1037 21.3836 46.2046 21.6489 46.2046C21.8914 46.2046 22.0737 46.1501 22.1958 46.041C22.3179 45.932 22.3952 45.7505 22.4277 45.4966H23.043ZM26.4341 44.9692C26.4341 45.3175 26.3739 45.6235 26.2534 45.8872C26.133 46.1493 25.9604 46.3511 25.7358 46.4927C25.5129 46.6326 25.2557 46.7026 24.9644 46.7026C24.6763 46.7026 24.4191 46.6326 24.1929 46.4927C23.9683 46.3511 23.7941 46.1501 23.6704 45.8896C23.5483 45.6292 23.4865 45.3289 23.4849 44.9888V44.7886C23.4849 44.4419 23.5459 44.1359 23.668 43.8706C23.7917 43.6053 23.965 43.4027 24.188 43.2627C24.4126 43.1211 24.6698 43.0503 24.9595 43.0503C25.2492 43.0503 25.5055 43.1203 25.7285 43.2603C25.9531 43.3986 26.1265 43.5988 26.2485 43.8608C26.3706 44.1213 26.4325 44.4248 26.4341 44.7715V44.9692ZM25.8164 44.7837C25.8164 44.3898 25.7415 44.0879 25.5918 43.8779C25.4437 43.668 25.2329 43.563 24.9595 43.563C24.6925 43.563 24.4834 43.668 24.332 43.8779C24.1823 44.0863 24.1058 44.3817 24.1025 44.7642V44.9692C24.1025 45.3599 24.1782 45.6618 24.3296 45.875C24.4826 46.0882 24.6942 46.1948 24.9644 46.1948C25.2378 46.1948 25.4478 46.0907 25.5942 45.8823C25.7424 45.674 25.8164 45.3696 25.8164 44.9692V44.7837Z" />
</g>
      

    </symbol>





    <symbol id="company-2" viewBox="0 0 40 52">

      <g>
      <path d="M16.977 2.93452H17.1136C17.3666 2.93452 17.6398 2.95995 17.9105 2.98284C19.1032 3.06695 20.2874 3.24551 21.4521 3.51685V0.653528C20.2528 0.352628 19.0297 0.157776 17.7967 0.0712015C17.3287 0.0356008 16.8303 0.0127146 16.3193 0H15.8918C13.4169 0.00930695 10.9527 0.327052 8.55557 0.945963C5.82533 1.62687 3.20469 2.69275 0.771606 4.11189V32.5086C3.11433 31.2357 5.60716 30.2643 8.19129 29.6173C10.2317 29.0967 12.3175 28.7765 14.4195 28.6612H14.503C14.8546 28.6434 15.2062 28.6332 15.568 28.6306V25.7216C12.8367 25.7567 10.1193 26.1178 7.47285 26.7972C6.49384 27.0515 5.54773 27.3261 4.65979 27.6313L3.6479 27.9746V5.83344L4.08049 5.62492C7.38171 4.05951 10.9522 3.14863 14.5966 2.94215C14.6269 2.93994 14.6573 2.93994 14.6876 2.94215C15.0898 2.92181 15.4946 2.91163 15.8918 2.91163H16.3269H16.3471C16.5571 2.91672 16.7671 2.92181 16.977 2.93452Z" />
<path d="M24.1108 5.93259C23.4455 5.93259 22.7877 5.9097 22.1528 5.86138C21.3939 5.80544 20.6147 5.7139 19.876 5.58929C19.4257 5.51301 18.983 5.42146 18.553 5.32229V33.3935C20.3737 33.8443 22.2433 34.0647 24.1184 34.0496C26.5931 34.0395 29.0571 33.7227 31.4546 33.1061C34.1853 32.4243 36.8067 31.3585 39.2411 29.9402V2.04956C36.8986 3.32178 34.4068 4.29396 31.8239 4.94339C29.3031 5.59083 26.7125 5.92307 24.1108 5.93259ZM35.3352 6.41828L36.3471 6.07753V28.2263L35.9145 28.4348C34.2552 29.2243 32.5223 29.8469 30.7412 30.2937C28.5781 30.8533 26.3544 31.1412 24.1209 31.1506C23.4531 31.1506 22.7903 31.1227 22.1477 31.0667L21.4546 31.0057V28.3178V8.22883L22.2616 8.28224C22.8485 8.32038 23.4556 8.33818 24.1158 8.33818C26.9514 8.3281 29.7749 7.96596 32.5221 7.25998C33.4657 7.01078 34.4042 6.73106 35.3352 6.41828Z" />
<path d="M2.73713 42.2124C2.59166 42.0615 2.41629 41.943 2.22236 41.8646C2.02844 41.7862 1.82029 41.7496 1.61141 41.7572C1.38879 41.7542 1.16781 41.7957 0.961267 41.8793C0.771901 41.9547 0.599767 42.068 0.455322 42.2124C0.312451 42.3572 0.201292 42.5304 0.128988 42.721C0.0496792 42.9207 0.0101425 43.1341 0.0126205 43.3491V47.1431C0.00357283 47.4104 0.0545882 47.6764 0.161874 47.9212C0.251433 48.1156 0.380725 48.2889 0.541333 48.4298C0.692953 48.5575 0.870978 48.6495 1.06246 48.6994C1.24694 48.7512 1.43755 48.7777 1.62911 48.7782C1.84041 48.7803 2.04953 48.7351 2.24131 48.646C2.43095 48.563 2.60277 48.4438 2.74725 48.295C2.88814 48.1476 3.00052 47.9752 3.07865 47.7864C3.15973 47.5951 3.20105 47.3892 3.20007 47.1812V46.7566H2.20842V47.0948C2.21137 47.2103 2.1916 47.3252 2.15024 47.433C2.11794 47.5137 2.06877 47.5866 2.00604 47.6466C1.94461 47.6962 1.87416 47.7334 1.79861 47.7559C1.73164 47.7782 1.6617 47.7902 1.59117 47.7915C1.50263 47.8018 1.41296 47.7885 1.33122 47.7527C1.24948 47.717 1.17858 47.6602 1.1257 47.5881C1.03222 47.4356 0.986395 47.2585 0.994154 47.0795V43.5423C0.988002 43.3462 1.02969 43.1515 1.11558 42.9753C1.16706 42.8952 1.2399 42.8313 1.32578 42.7908C1.41166 42.7503 1.50713 42.7349 1.60129 42.7464C1.68676 42.7434 1.7717 42.7612 1.8488 42.7984C1.92591 42.8356 1.99289 42.8911 2.04399 42.96C2.15496 43.1057 2.21298 43.2852 2.20842 43.4686V43.7966H3.18995V43.4101C3.19195 43.1831 3.15073 42.9578 3.06853 42.7464C2.99527 42.5476 2.88251 42.3659 2.73713 42.2124Z" />
<path d="M8.62892 42.1691C8.31271 41.9021 7.91362 41.7546 7.50066 41.7521C7.29868 41.7529 7.09838 41.7891 6.9087 41.8589C6.71613 41.9279 6.53841 42.0332 6.38505 42.1691C6.22076 42.3168 6.08968 42.498 6.00053 42.7006C5.90063 42.9323 5.85146 43.183 5.85634 43.4355V47.0744C5.8495 47.3304 5.89873 47.5847 6.00053 47.8195C6.09028 48.0151 6.22152 48.1887 6.38505 48.328C6.53665 48.4688 6.71468 48.5777 6.9087 48.6485C7.09838 48.7183 7.29868 48.7544 7.50066 48.7553C7.70269 48.7549 7.90307 48.7187 8.09262 48.6485C8.28995 48.5767 8.47195 48.468 8.62892 48.328C8.7871 48.1861 8.91454 48.013 9.00332 47.8195C9.10512 47.5847 9.15435 47.3304 9.14751 47.0744V43.4355C9.15239 43.183 9.10322 42.9323 9.00332 42.7006C8.91505 42.5001 8.78775 42.3194 8.62892 42.1691ZM8.16598 47.0744C8.17434 47.1714 8.16095 47.269 8.1268 47.3601C8.09265 47.4512 8.03861 47.5334 7.96866 47.6008C7.83768 47.7106 7.67251 47.7708 7.50193 47.7708C7.33135 47.7708 7.16617 47.7106 7.03519 47.6008C6.96524 47.5334 6.9112 47.4512 6.87705 47.3601C6.8429 47.269 6.82952 47.1714 6.83787 47.0744V43.4355C6.82952 43.3385 6.8429 43.2409 6.87705 43.1498C6.9112 43.0587 6.96524 42.9764 7.03519 42.9091C7.16617 42.7993 7.33135 42.7391 7.50193 42.7391C7.67251 42.7391 7.83768 42.7993 7.96866 42.9091C8.03861 42.9764 8.09265 43.0587 8.1268 43.1498C8.16095 43.2409 8.17434 43.3385 8.16598 43.4355V47.0744Z" />
<path d="M16.3673 48.6994V41.8107H15.4136L14.1614 45.4572H14.1437L12.8813 41.8107H11.9377V48.6994H12.9218V44.5087H12.9395L13.9033 47.4712H14.3941L15.3655 44.5087H15.3832V48.6994H16.3673Z" />
<path d="M21.9581 42.2937C21.8065 42.1237 21.6153 41.9943 21.4015 41.9173C21.1712 41.8424 20.9302 41.8063 20.6881 41.8105H19.226V48.6993H20.2075V46.0089H20.7134C21.0197 46.0228 21.3244 45.958 21.5988 45.8207C21.822 45.6968 22.0081 45.515 22.1377 45.2943C22.2512 45.1111 22.3277 44.9071 22.3628 44.6942C22.4014 44.435 22.4192 44.173 22.4159 43.911C22.4255 43.5802 22.3932 43.2495 22.3198 42.9269C22.2543 42.6885 22.1299 42.4706 21.9581 42.2937ZM21.4521 44.3941C21.4479 44.5188 21.4168 44.6412 21.361 44.7527C21.3049 44.8586 21.2162 44.9434 21.1081 44.9942C20.9627 45.0593 20.8041 45.0889 20.6451 45.0807H20.1974V42.7387H20.7033C20.8557 42.7312 21.0075 42.7609 21.146 42.8251C21.2475 42.8834 21.3281 42.9724 21.3762 43.0794C21.4299 43.2004 21.4591 43.331 21.4622 43.4634C21.4622 43.6084 21.4622 43.7609 21.4622 43.9211C21.4622 44.0813 21.4723 44.2466 21.4622 44.3941H21.4521Z" />
<path d="M26.6077 41.8107H25.8032L24.2854 48.6994H25.2669L25.5553 47.2194H26.8935L27.1819 48.6994H28.1635L26.6077 41.8107ZM25.702 46.2811L26.1852 43.784H26.2029L26.6836 46.2811H25.702Z" />
<path d="M32.9497 45.9607H32.932L31.4496 41.8107H30.506V48.6994H31.4875V44.557H31.5078L33.0079 48.6994H33.9312V41.8107H32.9497V45.9607Z" />
<path d="M38.9476 41.8107L38.1583 44.5494H38.1381L37.3488 41.8107H36.3091L37.6574 45.7878V48.6994H38.639V45.7878L39.9873 41.8107H38.9476Z" />
<path d="M0 50.6445H0.473058V51.9719H0.794333V50.6445H1.26486V50.3724H0V50.6445Z" />
<path d="M3.97672 50.3724L3.35693 51.9719H3.69845L3.82999 51.6083H4.46748L4.60409 51.9719H4.95319L4.31823 50.3724H3.97672ZM3.92612 51.3387L4.14368 50.7462L4.36123 51.3387H3.92612Z" />
<path d="M7.90793 51.3821H8.27727V51.5881C8.16941 51.6746 8.03576 51.722 7.89781 51.7229C7.8333 51.7265 7.76886 51.7145 7.70988 51.688C7.65091 51.6614 7.59911 51.6211 7.55883 51.5703C7.47402 51.4485 7.43217 51.3017 7.43993 51.1533C7.43993 50.7973 7.59424 50.6193 7.90034 50.6193C7.98091 50.6112 8.06168 50.6325 8.12804 50.6791C8.19439 50.7257 8.24194 50.7947 8.26209 50.8735L8.57831 50.8125C8.51001 50.4997 8.28486 50.3421 7.90034 50.3421C7.69468 50.3366 7.4947 50.4103 7.34127 50.5481C7.26069 50.6276 7.19834 50.7239 7.15858 50.8302C7.11882 50.9365 7.10261 51.0502 7.11107 51.1634C7.10175 51.3823 7.17493 51.5966 7.31598 51.7636C7.39434 51.8444 7.4892 51.9071 7.59401 51.9475C7.69883 51.9879 7.8111 52.0049 7.92311 51.9975C8.17338 52.0045 8.41652 51.9133 8.60108 51.7432V51.1126H7.90793V51.3821Z" />
<path d="M11.9226 50.3724H11.5988V51.9719H12.7194V51.6998H11.9226V50.3724Z" />
<path d="M15.3175 50.3724H14.9937V51.9719H15.3175V50.3724Z" />
<path d="M18.6365 51.4405L17.9813 50.3724H17.6676V51.9719H17.9686V50.9268L18.6112 51.9719H18.9325V50.3724H18.6365V51.4405Z"/>
<path d="M21.6368 51.2675H22.4337V50.9954H21.6368V50.6445H22.4944V50.3724H21.313V51.9719H22.5273V51.6998H21.6368V51.2675Z" />
<path d="M28.9122 51.0031H28.2823V50.3724H27.9611V51.9719H28.2823V51.2726H28.9122V51.9719H29.2335V50.3724H28.9122V51.0031Z" />
<path d="M31.9302 51.2675H32.7296V50.9954H31.9302V50.6445H32.7903V50.3724H31.6089V51.9719H32.8206V51.6998H31.9302V51.2675Z" />
<path d="M36.0233 51.2676C36.3015 51.2244 36.4432 51.0769 36.4432 50.8226C36.4513 50.7546 36.441 50.6856 36.4134 50.623C36.3858 50.5603 36.3419 50.5063 36.2863 50.4666C36.1415 50.3938 35.9799 50.3614 35.8183 50.3725H35.1404V51.972H35.4617V51.3032H35.5249C35.5934 51.299 35.6619 51.3112 35.7247 51.3388C35.7717 51.3678 35.8108 51.4079 35.8386 51.4558L36.1877 51.9644H36.5722L36.3774 51.6516C36.2913 51.4972 36.1699 51.3656 36.0233 51.2676ZM35.6994 51.0464H35.4617V50.6446H35.7146C35.8248 50.6357 35.9357 50.6486 36.041 50.6827C36.0644 50.7034 36.0828 50.7291 36.095 50.7579C36.1072 50.7867 36.1127 50.8179 36.1113 50.8492C36.1098 50.8804 36.1014 50.911 36.0866 50.9385C36.0718 50.966 36.051 50.9899 36.0258 51.0082C35.9202 51.0406 35.8096 51.0535 35.6994 51.0464Z"/>
<path d="M39.1096 51.2675H39.9064V50.9954H39.1096V50.6445H39.9697V50.3724H38.7858V51.9719H40V51.6998H39.1096V51.2675Z" />
</svg>
      </g>

    </symbol>


<symbol id="company-3" viewBox="0 0 45 50">
<g>
<path d="M6 0L13.3076 6.91796H33.6924V26.2158L41 33.1338V0H6Z" />
<path d="M0 6.62646V38.8137H34V26.0195L13.5231 6.63443L0 6.62646ZM27.5231 34.1055H5.38008V12.4579H6.9453V32.6397H27.5231V34.1055Z" />
<path d="M9.79102 44.7837L10.6089 43.0991H11.2925L10.1011 45.3452V46.6538H9.48096V45.3452L8.28711 43.0991H8.97314L9.79102 44.7837ZM13.3018 45.8262H11.9248L11.6367 46.6538H10.9946L12.3374 43.0991H12.8916L14.2368 46.6538H13.5923L13.3018 45.8262ZM12.0981 45.3281H13.1284L12.6133 43.8535L12.0981 45.3281ZM15.7358 45.6943C15.7358 45.5299 15.7806 45.3794 15.8701 45.2427C15.9596 45.1043 16.1362 44.9408 16.3999 44.752C16.2616 44.5778 16.1647 44.4297 16.1094 44.3076C16.0557 44.1855 16.0288 44.0675 16.0288 43.9536C16.0288 43.6753 16.1134 43.4556 16.2827 43.2944C16.452 43.1317 16.6799 43.0503 16.9663 43.0503C17.2251 43.0503 17.4367 43.1268 17.6011 43.2798C17.7671 43.4312 17.8501 43.6191 17.8501 43.8438C17.8501 43.9919 17.8127 44.1286 17.7378 44.2539C17.6629 44.3776 17.54 44.5013 17.3691 44.625L17.1274 44.8008L17.8135 45.6113C17.9128 45.416 17.9624 45.1987 17.9624 44.9595H18.4775C18.4775 45.3973 18.375 45.7562 18.1699 46.0361L18.6924 46.6538H18.0039L17.8037 46.417C17.5498 46.6074 17.2471 46.7026 16.8955 46.7026C16.5439 46.7026 16.2624 46.6099 16.0508 46.4243C15.8408 46.2371 15.7358 45.9938 15.7358 45.6943ZM16.9126 46.229C17.1128 46.229 17.3 46.1623 17.4741 46.0288L16.6978 45.1133L16.6221 45.167C16.4268 45.3151 16.3291 45.4844 16.3291 45.6748C16.3291 45.8392 16.382 45.9727 16.4878 46.0752C16.5936 46.1777 16.7352 46.229 16.9126 46.229ZM16.5854 43.939C16.5854 44.0757 16.6693 44.2474 16.8369 44.4541L17.1079 44.2686L17.1836 44.2075C17.2845 44.118 17.335 44.0033 17.335 43.8633C17.335 43.7705 17.3 43.6916 17.23 43.6265C17.16 43.5597 17.0713 43.5264 16.9639 43.5264C16.8483 43.5264 16.7563 43.5654 16.688 43.6436C16.6196 43.7217 16.5854 43.8201 16.5854 43.939ZM23.043 45.4966C23.0072 45.8758 22.8672 46.172 22.623 46.3853C22.3789 46.5968 22.0542 46.7026 21.6489 46.7026C21.3657 46.7026 21.1159 46.6359 20.8994 46.5024C20.6846 46.3674 20.5186 46.1761 20.4014 45.9287C20.2842 45.6813 20.2231 45.394 20.2183 45.0669V44.7349C20.2183 44.3996 20.2777 44.1042 20.3965 43.8486C20.5153 43.5931 20.6854 43.3962 20.9067 43.2578C21.1297 43.1195 21.3869 43.0503 21.6782 43.0503C22.0705 43.0503 22.3862 43.1569 22.6255 43.3701C22.8647 43.5833 23.0039 43.8844 23.043 44.2734H22.4277C22.3984 44.0179 22.3236 43.834 22.2031 43.7217C22.0843 43.6077 21.9093 43.5508 21.6782 43.5508C21.4097 43.5508 21.203 43.6493 21.0581 43.8462C20.9149 44.0415 20.8416 44.3288 20.8384 44.708V45.0229C20.8384 45.4071 20.9067 45.7 21.0435 45.9019C21.1818 46.1037 21.3836 46.2046 21.6489 46.2046C21.8914 46.2046 22.0737 46.1501 22.1958 46.041C22.3179 45.932 22.3952 45.7505 22.4277 45.4966H23.043ZM26.4341 44.9692C26.4341 45.3175 26.3739 45.6235 26.2534 45.8872C26.133 46.1493 25.9604 46.3511 25.7358 46.4927C25.5129 46.6326 25.2557 46.7026 24.9644 46.7026C24.6763 46.7026 24.4191 46.6326 24.1929 46.4927C23.9683 46.3511 23.7941 46.1501 23.6704 45.8896C23.5483 45.6292 23.4865 45.3289 23.4849 44.9888V44.7886C23.4849 44.4419 23.5459 44.1359 23.668 43.8706C23.7917 43.6053 23.965 43.4027 24.188 43.2627C24.4126 43.1211 24.6698 43.0503 24.9595 43.0503C25.2492 43.0503 25.5055 43.1203 25.7285 43.2603C25.9531 43.3986 26.1265 43.5988 26.2485 43.8608C26.3706 44.1213 26.4325 44.4248 26.4341 44.7715V44.9692ZM25.8164 44.7837C25.8164 44.3898 25.7415 44.0879 25.5918 43.8779C25.4437 43.668 25.2329 43.563 24.9595 43.563C24.6925 43.563 24.4834 43.668 24.332 43.8779C24.1823 44.0863 24.1058 44.3817 24.1025 44.7642V44.9692C24.1025 45.3599 24.1782 45.6618 24.3296 45.875C24.4826 46.0882 24.6942 46.1948 24.9644 46.1948C25.2378 46.1948 25.4478 46.0907 25.5942 45.8823C25.7424 45.674 25.8164 45.3696 25.8164 44.9692V44.7837Z" />
</g>
      

    </symbol>


    <symbol id="company-4" viewBox="0 0 45 50">
<g>
<path d="M6 0L13.3076 6.91796H33.6924V26.2158L41 33.1338V0H6Z" />
<path d="M0 6.62646V38.8137H34V26.0195L13.5231 6.63443L0 6.62646ZM27.5231 34.1055H5.38008V12.4579H6.9453V32.6397H27.5231V34.1055Z" />
<path d="M9.79102 44.7837L10.6089 43.0991H11.2925L10.1011 45.3452V46.6538H9.48096V45.3452L8.28711 43.0991H8.97314L9.79102 44.7837ZM13.3018 45.8262H11.9248L11.6367 46.6538H10.9946L12.3374 43.0991H12.8916L14.2368 46.6538H13.5923L13.3018 45.8262ZM12.0981 45.3281H13.1284L12.6133 43.8535L12.0981 45.3281ZM15.7358 45.6943C15.7358 45.5299 15.7806 45.3794 15.8701 45.2427C15.9596 45.1043 16.1362 44.9408 16.3999 44.752C16.2616 44.5778 16.1647 44.4297 16.1094 44.3076C16.0557 44.1855 16.0288 44.0675 16.0288 43.9536C16.0288 43.6753 16.1134 43.4556 16.2827 43.2944C16.452 43.1317 16.6799 43.0503 16.9663 43.0503C17.2251 43.0503 17.4367 43.1268 17.6011 43.2798C17.7671 43.4312 17.8501 43.6191 17.8501 43.8438C17.8501 43.9919 17.8127 44.1286 17.7378 44.2539C17.6629 44.3776 17.54 44.5013 17.3691 44.625L17.1274 44.8008L17.8135 45.6113C17.9128 45.416 17.9624 45.1987 17.9624 44.9595H18.4775C18.4775 45.3973 18.375 45.7562 18.1699 46.0361L18.6924 46.6538H18.0039L17.8037 46.417C17.5498 46.6074 17.2471 46.7026 16.8955 46.7026C16.5439 46.7026 16.2624 46.6099 16.0508 46.4243C15.8408 46.2371 15.7358 45.9938 15.7358 45.6943ZM16.9126 46.229C17.1128 46.229 17.3 46.1623 17.4741 46.0288L16.6978 45.1133L16.6221 45.167C16.4268 45.3151 16.3291 45.4844 16.3291 45.6748C16.3291 45.8392 16.382 45.9727 16.4878 46.0752C16.5936 46.1777 16.7352 46.229 16.9126 46.229ZM16.5854 43.939C16.5854 44.0757 16.6693 44.2474 16.8369 44.4541L17.1079 44.2686L17.1836 44.2075C17.2845 44.118 17.335 44.0033 17.335 43.8633C17.335 43.7705 17.3 43.6916 17.23 43.6265C17.16 43.5597 17.0713 43.5264 16.9639 43.5264C16.8483 43.5264 16.7563 43.5654 16.688 43.6436C16.6196 43.7217 16.5854 43.8201 16.5854 43.939ZM23.043 45.4966C23.0072 45.8758 22.8672 46.172 22.623 46.3853C22.3789 46.5968 22.0542 46.7026 21.6489 46.7026C21.3657 46.7026 21.1159 46.6359 20.8994 46.5024C20.6846 46.3674 20.5186 46.1761 20.4014 45.9287C20.2842 45.6813 20.2231 45.394 20.2183 45.0669V44.7349C20.2183 44.3996 20.2777 44.1042 20.3965 43.8486C20.5153 43.5931 20.6854 43.3962 20.9067 43.2578C21.1297 43.1195 21.3869 43.0503 21.6782 43.0503C22.0705 43.0503 22.3862 43.1569 22.6255 43.3701C22.8647 43.5833 23.0039 43.8844 23.043 44.2734H22.4277C22.3984 44.0179 22.3236 43.834 22.2031 43.7217C22.0843 43.6077 21.9093 43.5508 21.6782 43.5508C21.4097 43.5508 21.203 43.6493 21.0581 43.8462C20.9149 44.0415 20.8416 44.3288 20.8384 44.708V45.0229C20.8384 45.4071 20.9067 45.7 21.0435 45.9019C21.1818 46.1037 21.3836 46.2046 21.6489 46.2046C21.8914 46.2046 22.0737 46.1501 22.1958 46.041C22.3179 45.932 22.3952 45.7505 22.4277 45.4966H23.043ZM26.4341 44.9692C26.4341 45.3175 26.3739 45.6235 26.2534 45.8872C26.133 46.1493 25.9604 46.3511 25.7358 46.4927C25.5129 46.6326 25.2557 46.7026 24.9644 46.7026C24.6763 46.7026 24.4191 46.6326 24.1929 46.4927C23.9683 46.3511 23.7941 46.1501 23.6704 45.8896C23.5483 45.6292 23.4865 45.3289 23.4849 44.9888V44.7886C23.4849 44.4419 23.5459 44.1359 23.668 43.8706C23.7917 43.6053 23.965 43.4027 24.188 43.2627C24.4126 43.1211 24.6698 43.0503 24.9595 43.0503C25.2492 43.0503 25.5055 43.1203 25.7285 43.2603C25.9531 43.3986 26.1265 43.5988 26.2485 43.8608C26.3706 44.1213 26.4325 44.4248 26.4341 44.7715V44.9692ZM25.8164 44.7837C25.8164 44.3898 25.7415 44.0879 25.5918 43.8779C25.4437 43.668 25.2329 43.563 24.9595 43.563C24.6925 43.563 24.4834 43.668 24.332 43.8779C24.1823 44.0863 24.1058 44.3817 24.1025 44.7642V44.9692C24.1025 45.3599 24.1782 45.6618 24.3296 45.875C24.4826 46.0882 24.6942 46.1948 24.9644 46.1948C25.2378 46.1948 25.4478 46.0907 25.5942 45.8823C25.7424 45.674 25.8164 45.3696 25.8164 44.9692V44.7837Z" />
</g>
      

    </symbol>

    <symbol id="company-5" viewBox="0 0 45 50">
<g>
<path d="M6 0L13.3076 6.91796H33.6924V26.2158L41 33.1338V0H6Z" />
<path d="M0 6.62646V38.8137H34V26.0195L13.5231 6.63443L0 6.62646ZM27.5231 34.1055H5.38008V12.4579H6.9453V32.6397H27.5231V34.1055Z" />
<path d="M9.79102 44.7837L10.6089 43.0991H11.2925L10.1011 45.3452V46.6538H9.48096V45.3452L8.28711 43.0991H8.97314L9.79102 44.7837ZM13.3018 45.8262H11.9248L11.6367 46.6538H10.9946L12.3374 43.0991H12.8916L14.2368 46.6538H13.5923L13.3018 45.8262ZM12.0981 45.3281H13.1284L12.6133 43.8535L12.0981 45.3281ZM15.7358 45.6943C15.7358 45.5299 15.7806 45.3794 15.8701 45.2427C15.9596 45.1043 16.1362 44.9408 16.3999 44.752C16.2616 44.5778 16.1647 44.4297 16.1094 44.3076C16.0557 44.1855 16.0288 44.0675 16.0288 43.9536C16.0288 43.6753 16.1134 43.4556 16.2827 43.2944C16.452 43.1317 16.6799 43.0503 16.9663 43.0503C17.2251 43.0503 17.4367 43.1268 17.6011 43.2798C17.7671 43.4312 17.8501 43.6191 17.8501 43.8438C17.8501 43.9919 17.8127 44.1286 17.7378 44.2539C17.6629 44.3776 17.54 44.5013 17.3691 44.625L17.1274 44.8008L17.8135 45.6113C17.9128 45.416 17.9624 45.1987 17.9624 44.9595H18.4775C18.4775 45.3973 18.375 45.7562 18.1699 46.0361L18.6924 46.6538H18.0039L17.8037 46.417C17.5498 46.6074 17.2471 46.7026 16.8955 46.7026C16.5439 46.7026 16.2624 46.6099 16.0508 46.4243C15.8408 46.2371 15.7358 45.9938 15.7358 45.6943ZM16.9126 46.229C17.1128 46.229 17.3 46.1623 17.4741 46.0288L16.6978 45.1133L16.6221 45.167C16.4268 45.3151 16.3291 45.4844 16.3291 45.6748C16.3291 45.8392 16.382 45.9727 16.4878 46.0752C16.5936 46.1777 16.7352 46.229 16.9126 46.229ZM16.5854 43.939C16.5854 44.0757 16.6693 44.2474 16.8369 44.4541L17.1079 44.2686L17.1836 44.2075C17.2845 44.118 17.335 44.0033 17.335 43.8633C17.335 43.7705 17.3 43.6916 17.23 43.6265C17.16 43.5597 17.0713 43.5264 16.9639 43.5264C16.8483 43.5264 16.7563 43.5654 16.688 43.6436C16.6196 43.7217 16.5854 43.8201 16.5854 43.939ZM23.043 45.4966C23.0072 45.8758 22.8672 46.172 22.623 46.3853C22.3789 46.5968 22.0542 46.7026 21.6489 46.7026C21.3657 46.7026 21.1159 46.6359 20.8994 46.5024C20.6846 46.3674 20.5186 46.1761 20.4014 45.9287C20.2842 45.6813 20.2231 45.394 20.2183 45.0669V44.7349C20.2183 44.3996 20.2777 44.1042 20.3965 43.8486C20.5153 43.5931 20.6854 43.3962 20.9067 43.2578C21.1297 43.1195 21.3869 43.0503 21.6782 43.0503C22.0705 43.0503 22.3862 43.1569 22.6255 43.3701C22.8647 43.5833 23.0039 43.8844 23.043 44.2734H22.4277C22.3984 44.0179 22.3236 43.834 22.2031 43.7217C22.0843 43.6077 21.9093 43.5508 21.6782 43.5508C21.4097 43.5508 21.203 43.6493 21.0581 43.8462C20.9149 44.0415 20.8416 44.3288 20.8384 44.708V45.0229C20.8384 45.4071 20.9067 45.7 21.0435 45.9019C21.1818 46.1037 21.3836 46.2046 21.6489 46.2046C21.8914 46.2046 22.0737 46.1501 22.1958 46.041C22.3179 45.932 22.3952 45.7505 22.4277 45.4966H23.043ZM26.4341 44.9692C26.4341 45.3175 26.3739 45.6235 26.2534 45.8872C26.133 46.1493 25.9604 46.3511 25.7358 46.4927C25.5129 46.6326 25.2557 46.7026 24.9644 46.7026C24.6763 46.7026 24.4191 46.6326 24.1929 46.4927C23.9683 46.3511 23.7941 46.1501 23.6704 45.8896C23.5483 45.6292 23.4865 45.3289 23.4849 44.9888V44.7886C23.4849 44.4419 23.5459 44.1359 23.668 43.8706C23.7917 43.6053 23.965 43.4027 24.188 43.2627C24.4126 43.1211 24.6698 43.0503 24.9595 43.0503C25.2492 43.0503 25.5055 43.1203 25.7285 43.2603C25.9531 43.3986 26.1265 43.5988 26.2485 43.8608C26.3706 44.1213 26.4325 44.4248 26.4341 44.7715V44.9692ZM25.8164 44.7837C25.8164 44.3898 25.7415 44.0879 25.5918 43.8779C25.4437 43.668 25.2329 43.563 24.9595 43.563C24.6925 43.563 24.4834 43.668 24.332 43.8779C24.1823 44.0863 24.1058 44.3817 24.1025 44.7642V44.9692C24.1025 45.3599 24.1782 45.6618 24.3296 45.875C24.4826 46.0882 24.6942 46.1948 24.9644 46.1948C25.2378 46.1948 25.4478 46.0907 25.5942 45.8823C25.7424 45.674 25.8164 45.3696 25.8164 44.9692V44.7837Z" />
</g>
      

    </symbol>


    <symbol id="company-6" viewBox="0 0 89 46">
<g>
<path d="M44.7405 21.3533C44.3226 20.7432 44.1226 20.022 44.1701 19.2962V16.3135C44.1701 15.3992 44.3592 14.7044 44.7373 14.2291C45.1155 13.7537 45.7651 13.517 46.686 13.5191C47.5513 13.5191 48.1656 13.7213 48.5288 14.1259C48.925 14.6421 49.1178 15.2733 49.0736 15.91V16.6109H47.5256V15.9009C47.5311 15.6685 47.5161 15.4361 47.4808 15.2061C47.4585 15.0488 47.3806 14.9033 47.2596 14.7934C47.1007 14.675 46.9004 14.6175 46.6988 14.6326C46.4867 14.6176 46.2764 14.6782 46.1091 14.8025C45.9742 14.9243 45.8844 15.0838 45.8527 15.2576C45.8083 15.5011 45.7879 15.7479 45.7918 15.995V19.6147C45.7674 19.964 45.8357 20.3134 45.9905 20.6312C46.0675 20.7387 46.1744 20.824 46.2994 20.8775C46.4244 20.9311 46.5626 20.9508 46.6988 20.9346C46.8971 20.9501 47.0939 20.8912 47.2468 20.7708C47.373 20.6523 47.4541 20.4976 47.4776 20.3308C47.5137 20.0907 47.5298 19.8482 47.5256 19.6056V18.8714H49.0736V19.5419C49.1171 20.2056 48.929 20.8644 48.5384 21.4171C48.1827 21.86 47.5769 22.0815 46.686 22.0815C45.795 22.0815 45.1219 21.8449 44.7405 21.3533Z" fill="#AFB1B8"/>
<path d="M51.1857 21.3837C50.7947 20.9194 50.5992 20.2428 50.5992 19.3477V16.2104C50.5992 15.3244 50.7947 14.6538 51.1857 14.1987C51.5767 13.7436 52.2305 13.517 53.1471 13.5191C54.0573 13.5191 54.7079 13.7456 55.0989 14.1987C55.4899 14.6538 55.6886 15.3244 55.6886 16.2104V19.3477C55.6886 20.2337 55.4899 20.9134 55.0925 21.3806C54.6951 21.8479 54.0477 22.0815 53.1471 22.0815C52.2466 22.0815 51.5799 21.8449 51.1857 21.3837ZM53.8682 20.6312C54.0083 20.3404 54.072 20.0219 54.0541 19.7027V15.8615C54.0721 15.5485 54.0094 15.2361 53.8714 14.9512C53.7929 14.8414 53.6833 14.7547 53.5553 14.7011C53.4272 14.6474 53.2858 14.629 53.1471 14.6478C53.0081 14.6294 52.8664 14.6481 52.7379 14.7017C52.6094 14.7553 52.4992 14.8417 52.4196 14.9512C52.2787 15.2353 52.2148 15.5481 52.2337 15.8615V19.7209C52.2143 20.0402 52.2781 20.3591 52.4196 20.6494C52.5099 20.7473 52.6212 20.8257 52.7461 20.8795C52.8711 20.9332 53.0067 20.961 53.1439 20.961C53.2812 20.961 53.4168 20.9332 53.5417 20.8795C53.6666 20.8257 53.778 20.7473 53.8682 20.6494V20.6312Z" fill="#AFB1B8"/>
<path d="M57.5505 13.6106H59.2171L60.4702 19.3992L61.7522 13.6106H63.3739L63.5374 21.9658H62.3387L62.2105 16.159L60.9734 21.9658H60.0119L58.7299 16.1378L58.6114 21.9658H57.3999L57.5505 13.6106Z" fill="#AFB1B8"/>
<path d="M65.4059 13.6106H68.0018C69.4974 13.6106 70.2452 14.4014 70.2452 15.9831C70.2452 17.498 69.4579 18.2544 67.8832 18.2524H66.9987V21.9658H65.3962L65.4059 13.6106ZM67.6236 17.1814C67.782 17.2005 67.9428 17.1867 68.0949 17.1411C68.2471 17.0956 68.387 17.0193 68.505 16.9175C68.6887 16.6353 68.7698 16.3039 68.7357 15.974C68.7441 15.7191 68.7183 15.4642 68.6588 15.2155C68.636 15.1324 68.5959 15.0545 68.5408 14.9863C68.4858 14.918 68.417 14.8608 68.3383 14.8181C68.1159 14.7171 67.87 14.6711 67.6236 14.6846H67.0019V17.1814H67.6236Z" fill="#AFB1B8"/>
<path d="M72.5561 13.6106H74.2771L76.043 21.9658H74.5495L74.2002 20.0393H72.665L72.3061 21.9658H70.7902L72.5561 13.6106ZM74.0271 19.0715L73.4278 15.5644L72.8285 19.0715H74.0271Z" fill="#AFB1B8"/>
<path d="M77.4691 13.6106H78.5909L80.7382 18.3768V13.6106H82.0682V21.9658H81.001L78.8409 16.9903V21.9658H77.4659L77.4691 13.6106Z" fill="#AFB1B8"/>
<path d="M85.1834 18.7801L83.3983 13.6223H84.9014L85.9911 16.9354L87.0134 13.6223H88.4845L86.7218 18.7801V21.9658H85.1834V18.7801Z" fill="#AFB1B8"/>
<path d="M47.2148 25.6189V26.0558H45.9072V29.4509H45.3592V26.0558H44.0452V25.6189H47.2148Z" fill="#AFB1B8"/>
<path d="M51.3138 29.4512H50.8908C50.8478 29.4537 50.8054 29.4407 50.7722 29.4148C50.7402 29.3925 50.7157 29.362 50.7017 29.3268L50.3235 28.4166H48.5095L48.1313 29.3268C48.1206 29.3649 48.1008 29.4001 48.0736 29.43C48.0401 29.4554 47.9979 29.4683 47.955 29.4664H47.532L49.1345 25.6345H49.6921L51.3138 29.4512ZM48.6601 28.0283H50.1729L49.5319 26.4688C49.4846 26.3509 49.445 26.2303 49.4133 26.1078C49.3909 26.1806 49.3716 26.2504 49.3524 26.3111L49.2947 26.4719L48.6601 28.0283Z" fill="#AFB1B8"/>
<path d="M54.0765 29.0748C54.1769 29.0798 54.2774 29.0798 54.3778 29.0748C54.4644 29.0664 54.5502 29.0512 54.6342 29.0293C54.7127 29.0111 54.7898 28.9878 54.8649 28.9595C54.9354 28.9322 55.0059 28.8988 55.0797 28.8655V28.0037H54.4387C54.4228 28.0046 54.407 28.0023 54.3921 27.9971C54.3772 27.9919 54.3636 27.9838 54.3521 27.9734C54.3416 27.9648 54.3333 27.954 54.3277 27.9419C54.3222 27.9299 54.3196 27.9167 54.3201 27.9036V27.6093H55.5636V29.0779C55.4621 29.1466 55.3549 29.2075 55.2431 29.2599C55.1288 29.3133 55.0098 29.357 54.8874 29.3904C54.7563 29.4269 54.6223 29.4533 54.4867 29.4693C54.3314 29.4856 54.1752 29.4937 54.0188 29.4936C53.7424 29.4958 53.4682 29.4473 53.2112 29.351C52.9712 29.2596 52.7532 29.1234 52.5702 28.9504C52.3918 28.7757 52.2513 28.5695 52.1568 28.3436C52.0557 28.0896 52.0057 27.8199 52.0093 27.5486C52.006 27.2755 52.0548 27.0041 52.1536 26.7475C52.2457 26.5204 52.3865 26.3138 52.567 26.1406C52.7499 25.9682 52.968 25.833 53.208 25.7431C53.4824 25.6454 53.7737 25.597 54.0669 25.6005C54.2161 25.6003 54.3651 25.6115 54.5124 25.6339C54.6426 25.654 54.7704 25.6865 54.8938 25.731C55.0059 25.7709 55.1133 25.8217 55.2143 25.8827C55.3125 25.9426 55.4057 26.0095 55.4931 26.083L55.3393 26.3197C55.3272 26.3413 55.3093 26.3594 55.2873 26.3722C55.2653 26.3851 55.2401 26.392 55.2143 26.3925C55.1788 26.3914 55.1444 26.3809 55.1149 26.3621C55.0668 26.3379 55.0156 26.3075 54.9579 26.2711C54.8897 26.2307 54.8179 26.1961 54.7431 26.1679C54.6476 26.1317 54.549 26.1032 54.4483 26.083C54.314 26.0596 54.1777 26.0484 54.0413 26.0496C53.8298 26.0474 53.6199 26.0834 53.4227 26.1558C53.2444 26.2235 53.0836 26.3271 52.9516 26.4592C52.8188 26.597 52.7173 26.7592 52.6535 26.9356C52.5103 27.3507 52.5103 27.7981 52.6535 28.2131C52.7237 28.3933 52.8328 28.5576 52.974 28.6955C53.1055 28.827 53.265 28.9304 53.4419 28.999C53.6457 29.0652 53.8617 29.091 54.0765 29.0748Z" fill="#AFB1B8"/>
<path d="M59.1851 29.014H60.9351V29.4509H58.6499V25.6189H59.198L59.1851 29.014Z" fill="#AFB1B8"/>
<path d="M62.7555 29.4509H62.2074V25.6189H62.7555V29.4509Z" fill="#AFB1B8"/>
<path d="M64.7938 25.6371C64.8263 25.6547 64.8547 25.6785 64.8771 25.7069L67.2199 28.5955C67.2167 28.5501 67.2167 28.5045 67.2199 28.459C67.2199 28.4165 67.2199 28.374 67.2199 28.3346V25.6038H67.6974V29.4512H67.4218C67.3809 29.4543 67.34 29.447 67.3032 29.43C67.2699 29.4109 67.2406 29.3862 67.2167 29.3571L64.8771 26.4716C64.8771 26.5171 64.8771 26.5595 64.8771 26.602C64.8771 26.6445 64.8771 26.684 64.8771 26.7204V29.4512H64.4188V25.6189H64.7041C64.735 25.619 64.7656 25.6252 64.7938 25.6371Z" fill="#AFB1B8"/>
<path d="M71.7324 25.6189V26.0406H69.7903V27.3059H71.3639V27.7124H69.7903V29.0202H71.7324V29.4419H69.2262V25.6189H71.7324Z" fill="#AFB1B8"/>
<path d="M14.3035 1.95391L38.6385 8.49527V31.4173L14.3035 24.879V1.95391ZM12.7427 0V25.9925L40.1961 33.3743V7.38482L12.7427 0Z" fill="#AFB1B8"/>
<path d="M27.4565 45.4402L0 38.0522V12.0625L27.4565 19.4474V45.4402Z" fill="#AFB1B8"/>
<path d="M13.1978 1.65958L37.2155 8.11891L27.0014 17.7912L2.98057 11.3288L13.1978 1.65958ZM12.7427 0L0 12.0631L27.4565 19.4478L40.196 7.38469L12.7427 0Z" fill="#AFB1B8"/>
<path d="M29.0013 43.978L40.196 33.3774L29.0013 30.3647V43.978Z" fill="#AFB1B8"/>
</g>
      

    </symbol>




   <symbol id="icon-facebook" viewBox="0 0 11 20">
   <g>
   <path d="M8.33088 3.32083H10.1567V0.140833C9.84172 0.0975 8.75839 0 7.49672 0C4.86422 0 3.06088 1.65583 3.06088 4.69917V7.5H0.155884V11.055H3.06088V20H6.62255V11.0558H9.41005L9.85255 7.50083H6.62172V5.05167C6.62255 4.02417 6.89922 3.32083 8.33088 3.32083Z" fill="white"/>
</g>
    
  


    </svg> 



   